<svg width="250" height="184" viewBox="0 0 250 184" fill="none" xmlns="http://www.w3.org/2000/svg">
<path d="M125 125.004C143.41 125.004 158.334 110.079 158.334 91.6693C158.334 73.2593 143.41 58.335 125 58.335C106.59 58.335 91.6656 73.2593 91.6656 91.6693C91.6656 110.079 106.59 125.004 125 125.004Z" fill="#E5015A"/>
<path d="M249.504 88.8359C239.702 63.4822 222.686 41.5563 200.559 25.7681C178.432 9.97991 152.163 1.02147 125 0C97.8369 1.02147 71.5684 9.97991 49.4412 25.7681C27.314 41.5563 10.2981 63.4822 0.496469 88.8359C-0.16549 90.6668 -0.16549 92.6717 0.496469 94.5027C10.2981 119.856 27.314 141.782 49.4412 157.57C71.5684 173.359 97.8369 182.317 125 183.339C152.163 182.317 178.432 173.359 200.559 157.57C222.686 141.782 239.702 119.856 249.504 94.5027C250.165 92.6717 250.165 90.6668 249.504 88.8359V88.8359ZM125 145.837C114.287 145.837 103.814 142.661 94.9058 136.708C85.9978 130.756 79.055 122.296 74.9551 112.399C70.8552 102.501 69.7825 91.6092 71.8726 81.1016C73.9627 70.594 79.1217 60.9421 86.6973 53.3666C94.2729 45.791 103.925 40.632 114.432 38.5419C124.94 36.4518 135.831 37.5245 145.729 41.6244C155.627 45.7242 164.087 52.6671 170.039 61.575C175.991 70.483 179.168 80.9558 179.168 91.6693C179.146 106.029 173.432 119.794 163.278 129.948C153.125 140.101 139.36 145.815 125 145.837V145.837Z" fill="#E5015A"/>
</svg>
